<mxfile host="app.diagrams.net" modified="2024-03-28T15:21:24.169Z" agent="Mozilla/5.0 (Windows NT 10.0; Win64; x64) AppleWebKit/537.36 (KHTML, like Gecko) Chrome/123.0.0.0 Safari/537.36" etag="nGDS7qB8BScnufOheaoD" version="24.2.0" type="device">
  <diagram name="Pagina-1" id="TFdbtDSFHd1MAsW1qvZG">
    <mxGraphModel dx="1647" dy="886" grid="1" gridSize="10" guides="1" tooltips="1" connect="1" arrows="1" fold="1" page="1" pageScale="1" pageWidth="827" pageHeight="1169" math="0" shadow="0">
      <root>
        <mxCell id="0" />
        <mxCell id="1" parent="0" />
        <mxCell id="_pFdiB22G-TUd1nBWCXB-1" value="" style="endArrow=none;html=1;rounded=0;" edge="1" parent="1">
          <mxGeometry width="50" height="50" relative="1" as="geometry">
            <mxPoint x="80" y="490" as="sourcePoint" />
            <mxPoint x="80" y="40" as="targetPoint" />
          </mxGeometry>
        </mxCell>
        <mxCell id="_pFdiB22G-TUd1nBWCXB-2" value="" style="endArrow=none;html=1;rounded=0;" edge="1" parent="1">
          <mxGeometry width="50" height="50" relative="1" as="geometry">
            <mxPoint x="60" y="480" as="sourcePoint" />
            <mxPoint x="610" y="480" as="targetPoint" />
          </mxGeometry>
        </mxCell>
        <mxCell id="_pFdiB22G-TUd1nBWCXB-3" value="y" style="text;html=1;align=center;verticalAlign=middle;resizable=0;points=[];autosize=1;strokeColor=none;fillColor=none;" vertex="1" parent="1">
          <mxGeometry x="35" y="18" width="30" height="30" as="geometry" />
        </mxCell>
        <mxCell id="_pFdiB22G-TUd1nBWCXB-4" value="x" style="text;html=1;align=center;verticalAlign=middle;resizable=0;points=[];autosize=1;strokeColor=none;fillColor=none;" vertex="1" parent="1">
          <mxGeometry x="625" y="478" width="30" height="30" as="geometry" />
        </mxCell>
        <mxCell id="_pFdiB22G-TUd1nBWCXB-5" value="" style="shape=waypoint;sketch=0;fillStyle=solid;size=6;pointerEvents=1;points=[];fillColor=none;resizable=0;rotatable=0;perimeter=centerPerimeter;snapToPoint=1;" vertex="1" parent="1">
          <mxGeometry x="190" y="390" width="20" height="20" as="geometry" />
        </mxCell>
        <mxCell id="_pFdiB22G-TUd1nBWCXB-6" value="&lt;font style=&quot;font-size: 16px;&quot;&gt;a(3,2)&lt;/font&gt;" style="text;html=1;align=center;verticalAlign=middle;resizable=0;points=[];autosize=1;strokeColor=none;fillColor=none;" vertex="1" parent="1">
          <mxGeometry x="195" y="368" width="70" height="30" as="geometry" />
        </mxCell>
        <mxCell id="_pFdiB22G-TUd1nBWCXB-7" value="&lt;h1 style=&quot;margin-top: 0px;&quot;&gt;Astrazione&lt;/h1&gt;&lt;div&gt;&lt;h1 style=&quot;margin-top: 0px;&quot;&gt;Incapsulamento&lt;/h1&gt;&lt;/div&gt;&lt;div&gt;&lt;h1 style=&quot;margin-top: 0px;&quot;&gt;EreditarietÃ &lt;/h1&gt;&lt;/div&gt;&lt;div&gt;&lt;h1 style=&quot;margin-top: 0px;&quot;&gt;Polimorfismo&lt;/h1&gt;&lt;/div&gt;" style="text;html=1;whiteSpace=wrap;overflow=hidden;rounded=0;" vertex="1" parent="1">
          <mxGeometry x="560" y="30" width="210" height="220" as="geometry" />
        </mxCell>
        <mxCell id="_pFdiB22G-TUd1nBWCXB-9" value="" style="shape=waypoint;sketch=0;fillStyle=solid;size=6;pointerEvents=1;points=[];fillColor=none;resizable=0;rotatable=0;perimeter=centerPerimeter;snapToPoint=1;" vertex="1" parent="1">
          <mxGeometry x="350" y="390" width="20" height="20" as="geometry" />
        </mxCell>
        <mxCell id="_pFdiB22G-TUd1nBWCXB-10" value="&lt;font style=&quot;font-size: 16px;&quot;&gt;b(7,2)&lt;/font&gt;" style="text;html=1;align=center;verticalAlign=middle;resizable=0;points=[];autosize=1;strokeColor=none;fillColor=none;" vertex="1" parent="1">
          <mxGeometry x="355" y="368" width="70" height="30" as="geometry" />
        </mxCell>
        <mxCell id="_pFdiB22G-TUd1nBWCXB-11" value="" style="shape=waypoint;sketch=0;fillStyle=solid;size=6;pointerEvents=1;points=[];fillColor=none;resizable=0;rotatable=0;perimeter=centerPerimeter;snapToPoint=1;" vertex="1" parent="1">
          <mxGeometry x="190" y="272" width="20" height="20" as="geometry" />
        </mxCell>
        <mxCell id="_pFdiB22G-TUd1nBWCXB-12" value="&lt;span style=&quot;font-size: 16px;&quot;&gt;c(3,6)&lt;/span&gt;" style="text;html=1;align=center;verticalAlign=middle;resizable=0;points=[];autosize=1;strokeColor=none;fillColor=none;" vertex="1" parent="1">
          <mxGeometry x="200" y="250" width="60" height="30" as="geometry" />
        </mxCell>
        <mxCell id="_pFdiB22G-TUd1nBWCXB-13" value="" style="shape=waypoint;sketch=0;fillStyle=solid;size=6;pointerEvents=1;points=[];fillColor=none;resizable=0;rotatable=0;perimeter=centerPerimeter;snapToPoint=1;" vertex="1" parent="1">
          <mxGeometry x="350" y="272" width="20" height="20" as="geometry" />
        </mxCell>
        <mxCell id="_pFdiB22G-TUd1nBWCXB-14" value="&lt;font style=&quot;font-size: 16px;&quot;&gt;d(7,6)&lt;/font&gt;" style="text;html=1;align=center;verticalAlign=middle;resizable=0;points=[];autosize=1;strokeColor=none;fillColor=none;" vertex="1" parent="1">
          <mxGeometry x="360" y="256" width="70" height="30" as="geometry" />
        </mxCell>
        <mxCell id="_pFdiB22G-TUd1nBWCXB-16" value="" style="endArrow=none;html=1;rounded=0;exitX=0.272;exitY=0.773;exitDx=0;exitDy=0;exitPerimeter=0;entryX=0.054;entryY=1.026;entryDx=0;entryDy=0;entryPerimeter=0;" edge="1" parent="1" source="_pFdiB22G-TUd1nBWCXB-5" target="_pFdiB22G-TUd1nBWCXB-10">
          <mxGeometry width="50" height="50" relative="1" as="geometry">
            <mxPoint x="390" y="480" as="sourcePoint" />
            <mxPoint x="440" y="430" as="targetPoint" />
          </mxGeometry>
        </mxCell>
        <mxCell id="_pFdiB22G-TUd1nBWCXB-17" value="" style="endArrow=none;html=1;rounded=0;exitX=-0.061;exitY=0.44;exitDx=0;exitDy=0;exitPerimeter=0;entryX=0.272;entryY=0.562;entryDx=0;entryDy=0;entryPerimeter=0;" edge="1" parent="1" source="_pFdiB22G-TUd1nBWCXB-5" target="_pFdiB22G-TUd1nBWCXB-11">
          <mxGeometry width="50" height="50" relative="1" as="geometry">
            <mxPoint x="390" y="480" as="sourcePoint" />
            <mxPoint x="440" y="430" as="targetPoint" />
          </mxGeometry>
        </mxCell>
        <mxCell id="_pFdiB22G-TUd1nBWCXB-18" value="" style="endArrow=none;html=1;rounded=0;exitX=0.884;exitY=0.673;exitDx=0;exitDy=0;exitPerimeter=0;" edge="1" parent="1" source="_pFdiB22G-TUd1nBWCXB-11" target="_pFdiB22G-TUd1nBWCXB-13">
          <mxGeometry width="50" height="50" relative="1" as="geometry">
            <mxPoint x="390" y="480" as="sourcePoint" />
            <mxPoint x="350" y="300" as="targetPoint" />
          </mxGeometry>
        </mxCell>
        <mxCell id="_pFdiB22G-TUd1nBWCXB-19" value="" style="endArrow=none;html=1;rounded=0;entryX=0.828;entryY=0.728;entryDx=0;entryDy=0;entryPerimeter=0;exitX=0.55;exitY=0.94;exitDx=0;exitDy=0;exitPerimeter=0;" edge="1" parent="1" source="_pFdiB22G-TUd1nBWCXB-9" target="_pFdiB22G-TUd1nBWCXB-13">
          <mxGeometry width="50" height="50" relative="1" as="geometry">
            <mxPoint x="390" y="480" as="sourcePoint" />
            <mxPoint x="440" y="430" as="targetPoint" />
          </mxGeometry>
        </mxCell>
      </root>
    </mxGraphModel>
  </diagram>
</mxfile>
